<svg width="450.8400238037109" height="73.80445904627194" viewBox="0 0 401.33333333333337 65.7" class="css-1j8o68f"><defs id="SvgjsDefs1624"></defs><g id="SvgjsG1625" featurekey="symbolContainer" transform="matrix(0.9,0,0,0.9,0,0)" fill="#ffffff"><rect xmlns="http://www.w3.org/2000/svg" width="87" height="73" rx="10" ry="10"></rect></g><g id="SvgjsG1626" featurekey="monogramFeature-0" transform="matrix(0.7914273310279825,0,0,0.7914273310279825,13.62561667985994,2.009386546001048)" fill="#303a52"><path d="M46.706 17.808 c0.2199 -1.2184 15.9 6.4914 15.239 7.1742 c-3.3031 4.8304 -6.1344 10.284 -8.6298 16.036 c-2.4971 5.7557 -4.6759 11.804 -6.7872 17.928 c-0.48176 1.3264 -5.5111 0.39727 -5.6108 -1.0703 c0.00064452 -0.018457 0.0019336 -0.036914 0.0025781 -0.055371 c-0.07371 -0.069258 -0.13916 -0.14614 -0.18364 -0.24146 c-2.0161 -5.382 -3.9933 -10.75 -6.168 -15.961 c-0.66546 -1.5889 -1.3525 -3.1645 -2.0612 -4.7191 c-0.79956 1.7033 -1.5896 3.4187 -2.3669 5.1494 l-6.729 15.235 c0.00064452 0.18369 0.0044531 0.36803 0.0044531 0.55172 c-0.019688 1.4065 -5.0878 2.0961 -5.6521 0.82626 c-1.8044 -5.9134 -3.9457 -11.684 -6.3954 -17.238 c-2.4539 -5.5473 -5.2289 -10.889 -8.349 -15.788 c-0.64194 -0.70548 15.311 -7.8306 15.466 -6.6702 c1.805 6.5454 2.9866 13.051 3.7741 19.529 c0.2161 1.8069 0.3985 3.6113 0.5536 5.4132 l0.9159 -4.02 c0.66672 -2.8467 1.3583 -5.6998 2.1229 -8.5668 c0.76902 -2.869 1.5959 -5.7456 2.6414 -8.6838 c0.10998 -0.42838 1.8292 0.1265 3.7518 0.96612 c2.0313 -0.96162 3.9297 -1.6487 4.0524 -1.2019 c2.1781 5.778 3.5617 11.523 4.7413 17.237 c0.27644 1.3589 0.53701 2.7164 0.7887 4.0721 c0.16904 -1.8616 0.36229 -3.7295 0.59361 -5.607 c0.82752 -6.6756 2.1038 -13.475 4.2857 -20.295 z"></path></g><g id="SvgjsG1627" featurekey="nameFeature-0" transform="matrix(1.2122530785148327,0,0,1.2122530785148327,96.05999301356772,-3.54575714542705)" fill="#ffffff"><path d="M28.13 12.123000000000001 c1.145 0.4008 1.7483 1.6536 1.3483 2.7978 l-8.2628 23.608 c-0.30828 0.88092 -1.1395 1.4706 -2.0728 1.4706 s-1.7645 -0.58992 -2.0728 -1.4706 l-1.4686 -4.1956 l-1.4686 4.1956 c-0.30828 0.88092 -1.1395 1.4706 -2.0728 1.4706 s-1.7645 -0.58964 -2.0728 -1.4706 l-8.2628 -23.608 c-0.4008 -1.1447 0.2023 -2.3975 1.3473 -2.798 c1.1436 -0.40052 2.3973 0.2023 2.798 1.3473 l6.19 17.686 l6.19 -17.686 c0.4008 -1.1447 1.6542 -1.7478 2.798 -1.3473 c1.145 0.4008 1.748 1.6536 1.3473 2.7983 l-4.4676 12.765 l1.2147 3.4701 l6.19 -17.686 c0.4008 -1.1447 1.6542 -1.7478 2.798 -1.3473 z M47.96600000000001 19.412 c1.2128 0 2.196 0.98328 2.196 2.196 l0 16.196 c0 1.2128 -0.98328 2.196 -2.196 2.196 c-1.1071 0 -2.0201 -0.81968 -2.1716 -1.885 c-1.677 1.1856 -3.721 1.885 -5.9264 1.885 c-5.6764 0 -10.294 -4.6176 -10.294 -10.294 s4.6176 -10.294 10.294 -10.294 c2.2054 0 4.2492 0.69944 5.9264 1.885 c0.15152 -1.0654 1.0645 -1.885 2.1716 -1.885 z M39.868 35.608 c3.2543 0 5.902 -2.6476 5.902 -5.902 s-2.6476 -5.902 -5.902 -5.902 s-5.902 2.6476 -5.902 5.902 s2.6476 5.902 5.902 5.902 z M62.402 19.412 c1.2128 0 2.196 0.98328 2.196 2.196 s-0.98328 2.196 -2.196 2.196 c-3.2543 0 -5.902 2.6476 -5.902 5.902 l0 8.098 c0 1.2128 -0.98328 2.196 -2.196 2.196 s-2.196 -0.98328 -2.196 -2.196 l0 -16.196 c0 -1.2128 0.98328 -2.196 2.196 -2.196 c1.1071 0 2.0201 0.81996 2.1716 1.885 c1.677 -1.1856 3.721 -1.885 5.9264 -1.885 z M84.914 19.412 c1.2128 0 2.196 0.98328 2.196 2.196 l0 8.098 c0 5.6764 -4.6176 10.294 -10.294 10.294 s-10.294 -4.6176 -10.294 -10.294 l0 -8.098 c0 -1.2128 0.98328 -2.196 2.196 -2.196 s2.196 0.98328 2.196 2.196 l0 8.098 c0 3.2543 2.6476 5.902 5.902 5.902 s5.902 -2.6476 5.902 -5.902 l0 -8.098 c0 -1.2128 0.98328 -2.196 2.196 -2.196 z M97.03639999999999 19.412 c4.4004 0 7.98 3.5802 7.98 7.9804 l0 10.412 c0 1.2128 -0.98328 2.196 -2.196 2.196 s-2.196 -0.98328 -2.196 -2.196 l0 -10.412 c0 -1.9784 -1.6094 -3.5881 -3.5881 -3.5881 s-3.5881 1.6094 -3.5881 3.5881 l0 10.412 c0 1.2128 -0.98328 2.196 -2.196 2.196 s-2.196 -0.98328 -2.196 -2.196 l0 -16.196 c0 -1.2128 0.98328 -2.196 2.196 -2.196 c0.78592 0 1.4733 0.4142 1.8615 1.0349 c1.1592 -0.65744 2.4975 -1.0349 3.9227 -1.0349 z M125.32699999999998 19.412 c1.2128 0 2.1961 0.98324 2.1961 2.196 l0 15.537 c0 5.6612 -4.6056 10.267 -10.267 10.267 c-1.2128 0 -2.196 -0.98328 -2.196 -2.196 s0.98328 -2.196 2.196 -2.196 c2.8933 0 5.2992 -2.1046 5.7808 -4.862 c-1.6476 1.1269 -3.6384 1.7876 -5.7808 1.7876 c-5.6612 0 -10.267 -4.6056 -10.267 -10.267 s4.6056 -10.267 10.267 -10.267 c2.1952 0 4.23 0.69476 5.9008 1.873 c0.15676 -1.0593 1.067 -1.873 2.1697 -1.873 z M117.25699999999999 35.5528 c3.2392 0 5.8744 -2.6353 5.8744 -5.8744 s-2.6353 -5.8744 -5.8744 -5.8744 s-5.8744 2.6353 -5.8744 5.8744 s2.6353 5.8744 5.8744 5.8744 z M159.1 12 c1.2128 0 2.196 0.98328 2.196 2.196 s-0.98328 2.196 -2.196 2.196 l-11.224 0 l4.5136 4.5136 c0.85756 0.85756 0.85756 2.248 0 3.1056 c-0.4288 0.4288 -0.99096 0.64316 -1.5529 0.64316 c-0.5622 0 -1.1241 -0.21438 -1.5529 -0.64316 l-8.2628 -8.2628 c-0.62808 -0.62808 -0.81584 -1.5726 -0.47576 -2.3932 s1.1408 -1.3555 2.0289 -1.3555 l16.525 0 z M144.1272 20.906 l8.2628 8.2624 c0.41176 0.41176 0.64316 0.9704 0.64316 1.5529 l0 7.0824 c0 1.2128 -0.98328 2.196 -2.196 2.196 s-2.196 -0.98328 -2.196 -2.196 l0 -6.1726 l-7.6196 -7.6196 c-0.85756 -0.85756 -0.85756 -2.248 0 -3.1056 c0.85812 -0.85784 2.2485 -0.85756 3.1058 0 z M167.526 19.412 c5.6764 0 10.294 4.6176 10.294 10.294 c0 1.2128 -0.98328 2.196 -2.196 2.196 l-13.576 0 c0.87292 2.17 2.9995 3.7059 5.4784 3.7059 c1.5765 0 3.0586 -0.6138 4.1732 -1.7286 c0.85784 -0.85756 2.248 -0.85732 3.1058 0 c0.85784 0.85784 0.85756 2.2482 0 3.1058 c-1.9446 1.9443 -4.5296 3.0149 -7.2792 3.0149 c-5.6764 0 -10.294 -4.6176 -10.294 -10.294 s4.6176 -10.294 10.294 -10.294 z M162.04760000000002 27.509999999999998 l10.957 0 c-0.87292 -2.17 -2.9995 -3.7059 -5.4784 -3.7059 s-4.6056 1.5359 -5.4784 3.7059 z M190.06 19.412 c1.2128 0 2.196 0.98328 2.196 2.196 s-0.98328 2.196 -2.196 2.196 c-3.2543 0 -5.902 2.6476 -5.902 5.902 l0 8.098 c0 1.2128 -0.98328 2.196 -2.196 2.196 s-2.196 -0.98328 -2.196 -2.196 l0 -16.196 c0 -1.2128 0.98328 -2.196 2.196 -2.196 c1.1071 0 2.0201 0.81996 2.1716 1.885 c1.677 -1.1856 3.721 -1.885 5.9264 -1.885 z M204.44699999999997 19.412 c5.6612 0 10.266 4.6056 10.266 10.267 s-4.6056 10.267 -10.267 10.267 c-2.1837 0 -4.2088 -0.68764 -5.8744 -1.8543 l0 7.1249 c0 1.2128 -0.98328 2.196 -2.196 2.196 s-2.196 -0.98328 -2.196 -2.196 l0 -23.608 c0 -1.2128 0.98328 -2.196 2.196 -2.196 c1.1027 0 2.013 0.81364 2.1697 1.873 c1.6709 -1.1782 3.7059 -1.873 5.9012 -1.873 z M204.44699999999997 35.5528 c3.2392 0 5.8744 -2.6353 5.8744 -5.8744 s-2.6353 -5.8744 -5.8744 -5.8744 s-5.8744 2.6353 -5.8744 5.8744 s2.6353 5.8744 5.8744 5.8744 z M235.02599999999998 19.412 c1.2128 0 2.196 0.98328 2.196 2.196 l0 16.196 c0 1.2128 -0.98328 2.196 -2.196 2.196 c-1.1071 0 -2.0201 -0.81968 -2.1716 -1.885 c-1.677 1.1856 -3.721 1.885 -5.9264 1.885 c-5.6764 0 -10.294 -4.6176 -10.294 -10.294 s4.6176 -10.294 10.294 -10.294 c2.2054 0 4.2492 0.69944 5.9264 1.885 c0.15152 -1.0654 1.0645 -1.885 2.1716 -1.885 z M226.928 35.608 c3.2543 0 5.902 -2.6476 5.902 -5.902 s-2.6476 -5.902 -5.902 -5.902 s-5.902 2.6476 -5.902 5.902 s2.6476 5.902 5.902 5.902 z M249.62699999999998 35.608 c1.2128 0 2.1961 0.98332 2.1961 2.1961 s-0.98328 2.196 -2.196 2.196 c-5.7668 0 -10.459 -4.692 -10.459 -10.459 l0 -15.345 c0 -1.2128 0.98328 -2.196 2.196 -2.196 s2.196 0.98328 2.196 2.196 l0 15.345 c0 3.3452 2.7215 6.0668 6.0668 6.0668 z"></path></g></svg>